<svg width="42" height="39" viewBox="0 0 42 39" fill="none" xmlns="http://www.w3.org/2000/svg">
<path d="M20.13 0.534994C20.2172 0.381096 20.3437 0.253088 20.4965 0.164028C20.6494 0.0749689 20.8231 0.0280457 21 0.0280457C21.1769 0.0280457 21.3506 0.0749689 21.5034 0.164028C21.6563 0.253088 21.7828 0.381096 21.87 0.534994L27.811 11.02C27.8813 11.1442 27.9774 11.2519 28.0927 11.3359C28.2081 11.4199 28.3402 11.4783 28.48 11.507L40.28 13.926C40.4532 13.9614 40.6139 14.0421 40.7457 14.1599C40.8775 14.2777 40.9758 14.4283 41.0305 14.5964C41.0852 14.7645 41.0943 14.9441 41.057 15.1169C41.0196 15.2897 40.9372 15.4495 40.818 15.58L32.693 24.48C32.5969 24.5853 32.5245 24.7099 32.4805 24.8454C32.4365 24.981 32.422 25.1244 32.438 25.266L33.786 37.248C33.8058 37.4237 33.7786 37.6016 33.7072 37.7634C33.6358 37.9252 33.5228 38.0652 33.3797 38.1691C33.2365 38.273 33.0684 38.3371 32.8924 38.3548C32.7165 38.3725 32.5389 38.3433 32.378 38.27L21.418 33.285C21.288 33.2259 21.1468 33.1953 21.004 33.1953C20.8612 33.1953 20.72 33.2259 20.59 33.285L9.62598 38.27C9.46501 38.3433 9.28748 38.3725 9.11151 38.3548C8.93554 38.3371 8.76742 38.273 8.62428 38.1691C8.48115 38.0652 8.36814 37.9252 8.29676 37.7634C8.22538 37.6016 8.1982 37.4237 8.21798 37.248L9.56598 25.266C9.58194 25.1244 9.56744 24.981 9.52346 24.8454C9.47948 24.7099 9.40704 24.5853 9.31098 24.48L1.18598 15.58C1.06678 15.4495 0.984317 15.2897 0.946988 15.1169C0.90966 14.9441 0.918801 14.7645 0.973481 14.5964C1.02816 14.4283 1.12642 14.2777 1.25826 14.1599C1.3901 14.0421 1.55079 13.9614 1.72398 13.926L13.524 11.507C13.6638 11.4783 13.7958 11.4199 13.9112 11.3359C14.0266 11.2519 14.1227 11.1442 14.193 11.02L20.13 0.534994Z" fill="url(#paint0_linear_3_358)"/>
<defs>
<linearGradient id="paint0_linear_3_358" x1="16.8259" y1="26.592" x2="16.2404" y2="0.0267894" gradientUnits="userSpaceOnUse">
<stop stop-color="#575F6B"/>
<stop offset="1" stop-color="#2C3036"/>
</linearGradient>
</defs>
</svg>
